<mxfile host="65bd71144e">
    <diagram id="QCJxMdVYy4ehnCjjxdYy" name="第 1 页">
        <mxGraphModel dx="1036" dy="683" grid="1" gridSize="10" guides="1" tooltips="1" connect="1" arrows="1" fold="1" page="1" pageScale="1" pageWidth="1169" pageHeight="827" math="0" shadow="0">
            <root>
                <mxCell id="0"/>
                <mxCell id="1" parent="0"/>
                <mxCell id="4" value="代理" style="swimlane;fontSize=18;startSize=30;" vertex="1" parent="1">
                    <mxGeometry x="180" y="160" width="140" height="240" as="geometry"/>
                </mxCell>
                <mxCell id="26" style="edgeStyle=none;jumpSize=3;html=1;exitX=0.5;exitY=1;exitDx=0;exitDy=0;entryX=0.5;entryY=1;entryDx=0;entryDy=0;fontSize=18;startSize=4;endSize=2;strokeWidth=2;" edge="1" parent="4" source="3" target="4">
                    <mxGeometry relative="1" as="geometry"/>
                </mxCell>
                <mxCell id="3" value="&lt;font style=&quot;font-size: 18px&quot;&gt;代理类&lt;/font&gt;" style="rounded=0;whiteSpace=wrap;html=1;fillColor=#76608a;fontColor=#ffffff;strokeColor=#432D57;" vertex="1" parent="4">
                    <mxGeometry x="20" y="120" width="100" height="41" as="geometry"/>
                </mxCell>
                <mxCell id="6" value="&lt;span style=&quot;font-size: 18px&quot;&gt;主体类&lt;/span&gt;" style="rounded=1;whiteSpace=wrap;html=1;fillColor=#fa6800;fontColor=#000000;strokeColor=#C73500;" vertex="1" parent="4">
                    <mxGeometry x="20" y="40" width="100" height="40" as="geometry"/>
                </mxCell>
                <mxCell id="7" value="" style="endArrow=classic;startArrow=classic;html=1;entryX=0.5;entryY=1;entryDx=0;entryDy=0;exitX=0.5;exitY=0;exitDx=0;exitDy=0;jumpSize=6;strokeWidth=3;endSize=2;startSize=2;" edge="1" parent="4" source="3" target="6">
                    <mxGeometry width="50" height="50" relative="1" as="geometry">
                        <mxPoint x="60" y="150" as="sourcePoint"/>
                        <mxPoint x="110" y="100" as="targetPoint"/>
                    </mxGeometry>
                </mxCell>
                <mxCell id="10" value="外包" style="swimlane;fontSize=18;startSize=30;" vertex="1" parent="1">
                    <mxGeometry x="320" y="160" width="140" height="240" as="geometry"/>
                </mxCell>
                <mxCell id="27" style="edgeStyle=none;jumpSize=3;html=1;entryX=0.5;entryY=1;entryDx=0;entryDy=0;fontSize=18;startSize=4;endSize=2;strokeWidth=2;" edge="1" parent="10" source="11" target="10">
                    <mxGeometry relative="1" as="geometry"/>
                </mxCell>
                <mxCell id="11" value="&lt;span style=&quot;font-size: 18px&quot;&gt;主体类&lt;/span&gt;" style="rounded=0;whiteSpace=wrap;html=1;fillColor=#fa6800;fontColor=#000000;strokeColor=#C73500;" vertex="1" parent="10">
                    <mxGeometry x="20" y="120" width="100" height="41" as="geometry"/>
                </mxCell>
                <mxCell id="12" value="&lt;font style=&quot;font-size: 18px&quot;&gt;外包类&lt;/font&gt;" style="rounded=1;whiteSpace=wrap;html=1;fillColor=#76608a;fontColor=#ffffff;strokeColor=#432D57;" vertex="1" parent="10">
                    <mxGeometry x="20" y="40" width="100" height="40" as="geometry"/>
                </mxCell>
                <mxCell id="13" value="" style="endArrow=classic;startArrow=classic;html=1;entryX=0.5;entryY=1;entryDx=0;entryDy=0;exitX=0.5;exitY=0;exitDx=0;exitDy=0;jumpSize=6;strokeWidth=3;endSize=2;startSize=2;" edge="1" parent="10" source="11" target="12">
                    <mxGeometry width="50" height="50" relative="1" as="geometry">
                        <mxPoint x="60" y="150" as="sourcePoint"/>
                        <mxPoint x="110" y="100" as="targetPoint"/>
                    </mxGeometry>
                </mxCell>
                <mxCell id="15" value="装饰" style="swimlane;fontSize=18;startSize=30;" vertex="1" parent="1">
                    <mxGeometry x="40" y="160" width="140" height="240" as="geometry"/>
                </mxCell>
                <mxCell id="24" style="edgeStyle=none;jumpSize=6;html=1;entryX=0.5;entryY=1;entryDx=0;entryDy=0;fontSize=18;startSize=4;endSize=4;strokeWidth=3;" edge="1" parent="15" source="16" target="15">
                    <mxGeometry relative="1" as="geometry"/>
                </mxCell>
                <mxCell id="16" value="&lt;span style=&quot;font-size: 18px&quot;&gt;装饰类&lt;br&gt;&lt;br&gt;&lt;br&gt;&lt;br&gt;&lt;br&gt;&lt;/span&gt;" style="rounded=0;whiteSpace=wrap;html=1;fillColor=#76608a;fontColor=#ffffff;strokeColor=#432D57;" vertex="1" parent="15">
                    <mxGeometry x="20" y="40" width="100" height="120" as="geometry"/>
                </mxCell>
                <mxCell id="20" value="主体类" style="rounded=1;whiteSpace=wrap;html=1;fontSize=18;fillColor=#fa6800;fontColor=#000000;strokeColor=#C73500;" vertex="1" parent="15">
                    <mxGeometry x="10" y="88" width="120" height="44" as="geometry"/>
                </mxCell>
                <mxCell id="25" value="" style="endArrow=none;dashed=1;html=1;dashPattern=1 3;strokeWidth=2;fontSize=18;startSize=4;endSize=2;jumpSize=3;entryX=0.5;entryY=1;entryDx=0;entryDy=0;exitX=0.5;exitY=1;exitDx=0;exitDy=0;" edge="1" parent="15" source="16" target="20">
                    <mxGeometry width="50" height="50" relative="1" as="geometry">
                        <mxPoint x="80" y="350" as="sourcePoint"/>
                        <mxPoint x="130" y="300" as="targetPoint"/>
                    </mxGeometry>
                </mxCell>
                <mxCell id="21" value="Vertical Container" style="swimlane;fontSize=18;" vertex="1" parent="1">
                    <mxGeometry x="650" y="160" width="410" height="320" as="geometry"/>
                </mxCell>
            </root>
        </mxGraphModel>
    </diagram>
</mxfile>